HIERARCHY
ROOT root
{
  OFFSET 0 98.6856 0
  CHANNELS 6 Xposition Yposition Zposition Zrotation Xrotation Yrotation
  JOINT torso_1
  {
    OFFSET 0 5.37224 -1.21793
    CHANNELS 6 Xposition Yposition Zposition Zrotation Xrotation Yrotation
    JOINT torso_2
    {
      OFFSET 0 5.94127 1.13336
      CHANNELS 6 Xposition Yposition Zposition Zrotation Xrotation Yrotation
      JOINT torso_3
      {
        OFFSET -1.08535e-17 6.33601 0.121658
        CHANNELS 6 Xposition Yposition Zposition Zrotation Xrotation Yrotation
        JOINT torso_4
        {
          OFFSET -1.16841e-17 6.88189 -0.46916
          CHANNELS 6 Xposition Yposition Zposition Zrotation Xrotation Yrotation
          JOINT torso_5
          {
            OFFSET -2.08699e-17 8.0451 -1.59297
            CHANNELS 6 Xposition Yposition Zposition Zrotation Xrotation Yrotation
            JOINT torso_6
            {
              OFFSET -2.67949e-17 10.0463 -0.967353
              CHANNELS 6 Xposition Yposition Zposition Zrotation Xrotation Yrotation
              JOINT torso_7
              {
                OFFSET -3.07187e-17 11.1612 1.66806
                CHANNELS 6 Xposition Yposition Zposition Zrotation Xrotation Yrotation
                JOINT neck_1
                {
                  OFFSET -1.36661e-17 5.06312 0.756688
                  CHANNELS 6 Xposition Yposition Zposition Zrotation Xrotation Yrotation
                  JOINT neck_2
                  {
                    OFFSET -1.91632e-17 5.09976 0.446172
                    CHANNELS 6 Xposition Yposition Zposition Zrotation Xrotation Yrotation
                    JOINT head
                    {
                      OFFSET -2.12574e-17 5.10962 0.809285
                      CHANNELS 6 Xposition Yposition Zposition Zrotation Xrotation Yrotation
                      End Site
                      {
                        OFFSET 0 0.1 0
                      }
                    }
                  }
                }
                JOINT l_shoulder
                {
                  OFFSET 1.30426 -8.04703 7.96922
                  CHANNELS 6 Xposition Yposition Zposition Zrotation Xrotation Yrotation
                  JOINT l_up_arm
                  {
                    OFFSET 13.7035 3.43734 -3.45766
                    CHANNELS 6 Xposition Yposition Zposition Zrotation Xrotation Yrotation
                    JOINT l_low_arm
                    {
                      OFFSET 30.8964 0.0632652 0.14496
                      CHANNELS 6 Xposition Yposition Zposition Zrotation Xrotation Yrotation
                      JOINT l_hand
                      {
                        OFFSET 25.6348 0.0524902 0.120274
                        CHANNELS 6 Xposition Yposition Zposition Zrotation Xrotation Yrotation
                        End Site
                        {
                          OFFSET 0.1 0 0
                        }
                      }
                    }
                  }
                }
                JOINT r_shoulder
                {
                  OFFSET -1.30426 -8.04702 7.96912
                  CHANNELS 6 Xposition Yposition Zposition Zrotation Xrotation Yrotation
                  JOINT r_up_arm
                  {
                    OFFSET -13.7035 3.43734 -3.45766
                    CHANNELS 6 Xposition Yposition Zposition Zrotation Xrotation Yrotation
                    JOINT r_low_arm
                    {
                      OFFSET -30.8964 0.0632652 0.14496
                      CHANNELS 6 Xposition Yposition Zposition Zrotation Xrotation Yrotation
                      JOINT r_hand
                      {
                        OFFSET -25.6348 0.0524901 0.120274
                        CHANNELS 6 Xposition Yposition Zposition Zrotation Xrotation Yrotation
                        End Site
                        {
                          OFFSET -0.1 0 0
                        }
                      }
                    }
                  }
                }
              }
            }
          }
        }
      }
    }
  }
  JOINT l_up_leg
  {
    OFFSET 9.77065 -4.44866 2.1502
    CHANNELS 6 Xposition Yposition Zposition Zrotation Xrotation Yrotation
    JOINT l_low_leg
    {
      OFFSET -0.901622 -41.0132 -0.693059
      CHANNELS 6 Xposition Yposition Zposition Zrotation Xrotation Yrotation
      JOINT l_foot
      {
        OFFSET -2.46068 -42.7371 -6.39839
        CHANNELS 6 Xposition Yposition Zposition Zrotation Xrotation Yrotation
        JOINT l_toes
        {
          OFFSET 0.82413 -10.4558 13.2182
          CHANNELS 6 Xposition Yposition Zposition Zrotation Xrotation Yrotation
          End Site
          {
            OFFSET 0 0 0.1
          }
        }
      }
    }
  }
  JOINT r_up_leg
  {
    OFFSET -9.77065 -4.44866 2.1502
    CHANNELS 6 Xposition Yposition Zposition Zrotation Xrotation Yrotation
    JOINT r_low_leg
    {
      OFFSET 0.901622 -41.0132 -0.693059
      CHANNELS 6 Xposition Yposition Zposition Zrotation Xrotation Yrotation
      JOINT r_foot
      {
        OFFSET 2.46068 -42.7371 -6.39839
        CHANNELS 6 Xposition Yposition Zposition Zrotation Xrotation Yrotation
        JOINT r_toes
        {
          OFFSET -0.82413 -10.4558 13.2182
          CHANNELS 6 Xposition Yposition Zposition Zrotation Xrotation Yrotation
          End Site
          {
            OFFSET 0 0 0.1
          }
        }
      }
    }
  }
}
MOTION
Frames: 4
Frame Time: 0.02
36.1273 97.8469 99.9573 2.48016 -6.53149 -15.9795 0 5.37224 -1.21793 -1.63075 1.91978 0.322668 0 5.94127 1.13336 -1.4149 1.86769 0.273284 -1.08535e-17 6.33601 0.121658 -0.967624 2.06645 0.354445 -1.16841e-17 6.88189 -0.46916 -0.502297 2.24488 0.415294 -2.08699e-17 8.0451 -1.59297 0.148826 1.83402 0.459425 -2.67949e-17 10.0463 -0.967353 0.800638 1.65871 0.290869 -3.07187e-17 11.1612 1.66806 0.00389511 0.143428 0.00302283 -1.36661e-17 5.06312 0.756688 1.89301 7.9924 -27.3282 -1.91632e-17 5.09976 0.446172 5.43277 -0.941216 -12.4412 -2.12574e-17 5.10962 0.809285 1.60971 -0.137353 -10.9122 1.30426 -8.04703 7.96922 4.79371 1.50972 -0.926506 13.7035 3.43734 -3.45766 -69.0081 45.5451 -13.9305 30.8964 0.0632652 0.14496 11.4443 -8.29359 -72.3678 25.6348 0.0524902 0.120274 -5.93798 -75.9952 -6.42932 -1.30426 -8.04702 7.96912 -7.25805 0.735286 0.275394 -13.7035 3.43734 -3.45766 66.4523 39.8435 10.0655 -30.8964 0.0632652 0.14496 -12.0111 -11.2452 86.7954 -25.6348 0.0524901 0.120274 11.7493 -69.1039 10.8333 9.77065 -4.44866 2.1502 -4.96332 6.24548 -3.63038 -0.901622 -41.0132 -0.693059 -0.139162 0.519431 -0.00843578 -2.46068 -42.7371 -6.39839 2.7644 0.437605 14.7605 0.82413 -10.4558 13.2182 -3.47873e-16 -8.07563e-16 2.48481e-17 -9.77065 -4.44866 2.1502 -3.92787 -1.65632 25.0656 0.901622 -41.0132 -0.693059 1.53247 5.71865 0.0233518 2.46068 -42.7371 -6.39839 -1.40315 -3.67277 -15.2058 -0.82413 -10.4558 13.2182 -5.96354e-16 -5.59082e-16 -1.27471e-14 
36.1407 97.8885 99.8114 2.45554 -6.57988 -16.0066 0 5.37224 -1.21793 -1.60516 1.97912 0.33184 0 5.94127 1.13336 -1.39214 1.91157 0.290689 -1.08535e-17 6.33601 0.121658 -0.949143 2.09209 0.373526 -1.16841e-17 6.88189 -0.46916 -0.485152 2.22975 0.436806 -2.08699e-17 8.0451 -1.59297 0.167989 1.77958 0.476736 -2.67949e-17 10.0463 -0.967353 0.820844 1.58379 0.3014 -3.07187e-17 11.1612 1.66806 0.00456757 0.14567 0.00265573 -1.36661e-17 5.06312 0.756688 1.96389 8.01744 -27.5572 -1.91632e-17 5.09976 0.446172 5.66172 -0.895841 -12.5173 -2.12574e-17 5.10962 0.809285 1.63164 0.0540523 -10.9353 1.30426 -8.04703 7.96922 4.93485 1.50011 -0.997262 13.7035 3.43734 -3.45766 -67.8065 45.2893 -15.7564 30.8964 0.0632652 0.14496 11.6234 -8.89414 -75.3598 25.6348 0.0524902 0.120274 -7.04116 -75.5738 -7.8675 -1.30426 -8.04702 7.96912 -7.7861 0.603303 0.198959 -13.7035 3.43734 -3.45766 64.5338 40.3686 12.4167 -30.8964 0.0632652 0.14496 -12.0334 -11.8813 89.8596 -25.6348 0.0524901 0.120274 11.7592 -69.387 11.2892 9.77065 -4.44866 2.1502 -4.91888 6.17371 -3.68734 -0.901622 -41.0132 -0.693059 -0.150373 0.561289 -0.00906065 -2.46068 -42.7371 -6.39839 2.61214 0.564249 14.773 0.82413 -10.4558 13.2182 4.96962e-17 -7.95139e-16 1.2424e-17 -9.77065 -4.44866 2.1502 -3.88003 -1.86617 24.9909 0.901622 -41.0132 -0.693059 1.60237 5.97852 0.0207647 2.46068 -42.7371 -6.39839 -1.19628 -3.50274 -15.2165 -0.82413 -10.4558 13.2182 -5.96354e-16 -5.59082e-16 -1.27471e-14 
36.148 97.9259 99.6805 2.45282 -6.56617 -16.0073 0 5.37224 -1.21793 -1.57003 1.95187 0.339113 0 5.94127 1.13336 -1.36195 1.89905 0.306709 -1.08535e-17 6.33601 0.121658 -0.927971 2.08671 0.389252 -1.16841e-17 6.88189 -0.46916 -0.470098 2.22227 0.453437 -2.08699e-17 8.0451 -1.59297 0.179252 1.75753 0.49015 -2.67949e-17 10.0463 -0.967353 0.828473 1.55232 0.311536 -3.07187e-17 11.1612 1.66806 0.00490302 0.147467 0.00226048 -1.36661e-17 5.06312 0.756688 1.94928 7.91164 -27.8013 -1.91632e-17 5.09976 0.446172 5.80469 -0.79465 -12.6139 -2.12574e-17 5.10962 0.809285 1.75238 0.426167 -10.9515 1.30426 -8.04703 7.96922 4.79522 1.53797 -1.23645 13.7035 3.43734 -3.45766 -66.4143 44.7432 -17.7684 30.8964 0.0632652 0.14496 11.7606 -9.456 -78.1244 25.6348 0.0524902 0.120274 -8.35136 -75.7097 -9.46981 -1.30426 -8.04702 7.96912 -7.96453 0.49509 0.26921 -13.7035 3.43734 -3.45766 62.4152 40.4968 15.0512 -30.8964 0.0632652 0.14496 -12.0234 -12.4622 92.6628 -25.6348 0.0524901 0.120274 11.713 -69.6053 11.6773 9.77065 -4.44866 2.1502 -4.87803 6.0394 -3.72511 -0.901622 -41.0132 -0.693059 -0.164088 0.612496 -0.00981396 -2.46068 -42.7371 -6.39839 2.47363 0.664035 14.7881 0.82413 -10.4558 13.2182 -3.47873e-16 -8.07563e-16 2.48481e-17 -9.77065 -4.44866 2.1502 -3.83428 -2.136 24.9106 0.901622 -41.0132 -0.693059 1.67656 6.25416 0.0176706 2.46068 -42.7371 -6.39839 -1.00715 -3.36947 -15.2311 -0.82413 -10.4558 13.2182 -5.96354e-16 -5.59082e-16 -1.27471e-14 
36.155 97.9732 99.5669 2.46306 -6.53493 -15.9974 0 5.37224 -1.21793 -1.53609 1.88006 0.336705 0 5.94127 1.13336 -1.33211 1.85981 0.311382 -1.08535e-17 6.33601 0.121658 -0.909873 2.06897 0.390672 -1.16841e-17 6.88189 -0.46916 -0.460769 2.22397 0.453074 -2.08699e-17 8.0451 -1.59297 0.178534 1.75659 0.487837 -2.67949e-17 10.0463 -0.967353 0.817627 1.54772 0.310713 -3.07187e-17 11.1612 1.66806 0.00480088 0.148819 0.0015499 -1.36661e-17 5.06312 0.756688 1.85124 7.69194 -27.9986 -1.91632e-17 5.09976 0.446172 5.8453 -0.653101 -12.7009 -2.12574e-17 5.10962 0.809285 1.96974 0.946232 -10.951 1.30426 -8.04703 7.96922 4.40479 1.62919 -1.65406 13.7035 3.43734 -3.45766 -64.8577 43.8543 -19.9491 30.8964 0.0632652 0.14496 11.861 -9.96914 -80.6271 25.6348 0.0524902 0.120274 -9.75403 -76.3206 -11.1324 -1.30426 -8.04702 7.96912 -7.8636 0.407249 0.488324 -13.7035 3.43734 -3.45766 60.3292 40.1536 17.9065 -30.8964 0.0632652 0.14496 -11.9912 -12.9641 95.094 -25.6348 0.0524901 0.120274 11.4291 -69.563 11.8286 9.77065 -4.44866 2.1502 -4.84246 5.88051 -3.74868 -0.901622 -41.0132 -0.693059 -0.18121 0.676427 -0.0107372 -2.46068 -42.7371 -6.39839 2.29955 0.789687 14.8062 0.82413 -10.4558 13.2182 -3.47873e-16 -8.07563e-16 2.48481e-17 -9.77065 -4.44866 2.1502 -3.80199 -2.42 24.8176 0.901622 -41.0132 -0.693059 1.75136 6.53182 0.0141888 2.46068 -42.7371 -6.39839 -0.804648 -3.21805 -15.2461 -0.82413 -10.4558 13.2182 -5.96354e-16 -5.59082e-16 -1.27471e-14 
